<svg width="207" height="44" viewBox="0 0 207 44" fill="none" xmlns="http://www.w3.org/2000/svg">
<g clip-path="url(#clip0_111_7)">
<path d="M33.966 17.004V27H36.164V22.688H40.21V27H42.408V17.004H40.21V20.84H36.164V17.004H33.966Z" fill="#34C759"/>
<path d="M46.443 17.004V27H54.031V25.152H48.641V22.702H53.485V20.994H48.641V18.852H53.919V17.004H46.443Z" fill="#34C759"/>
<path d="M60.1411 23.136L61.4431 19.468H61.4711L62.7311 23.136H60.1411ZM60.3511 17.004L56.5711 27H58.7831L59.5671 24.774H63.3051L64.0611 27H66.3431L62.6051 17.004H60.3511Z" fill="#34C759"/>
<path d="M69.3051 17.004V27H76.3751V25.152H71.5031V17.004H69.3051Z" fill="#34C759"/>
<path d="M80.6307 18.852V27H82.8287V18.852H85.8247V17.004H77.6347V18.852H80.6307Z" fill="#34C759"/>
<path d="M89.0773 17.004V27H91.2753V22.688H95.3213V27H97.5193V17.004H95.3213V20.84H91.2753V17.004H89.0773Z" fill="#34C759"/>
<path d="M104.144 23.108V27H106.342V23.164L110.052 17.004H107.602L105.278 20.952L102.94 17.004H100.476L104.144 23.108Z" fill="#34C759"/>
<path d="M120.487 23.682H118.359C118.349 24.298 118.461 24.83 118.695 25.278C118.928 25.726 119.241 26.0947 119.633 26.384C120.034 26.6733 120.491 26.8833 121.005 27.014C121.527 27.154 122.064 27.224 122.615 27.224C123.296 27.224 123.893 27.1447 124.407 26.986C124.929 26.8273 125.363 26.608 125.709 26.328C126.063 26.0387 126.329 25.698 126.507 25.306C126.684 24.914 126.773 24.4893 126.773 24.032C126.773 23.472 126.651 23.0147 126.409 22.66C126.175 22.296 125.895 22.0067 125.569 21.792C125.242 21.5773 124.911 21.4233 124.575 21.33C124.248 21.2273 123.991 21.1573 123.805 21.12C123.179 20.9613 122.671 20.8307 122.279 20.728C121.896 20.6253 121.593 20.5227 121.369 20.42C121.154 20.3173 121.009 20.2053 120.935 20.084C120.86 19.9627 120.823 19.804 120.823 19.608C120.823 19.3933 120.869 19.216 120.963 19.076C121.056 18.936 121.173 18.8193 121.313 18.726C121.462 18.6327 121.625 18.5673 121.803 18.53C121.98 18.4927 122.157 18.474 122.335 18.474C122.605 18.474 122.853 18.4973 123.077 18.544C123.31 18.5907 123.515 18.67 123.693 18.782C123.87 18.894 124.01 19.048 124.113 19.244C124.225 19.44 124.29 19.6873 124.309 19.986H126.437C126.437 19.4073 126.325 18.9173 126.101 18.516C125.886 18.1053 125.592 17.7693 125.219 17.508C124.845 17.2467 124.416 17.06 123.931 16.948C123.455 16.8267 122.955 16.766 122.433 16.766C121.985 16.766 121.537 16.8267 121.089 16.948C120.641 17.0693 120.239 17.256 119.885 17.508C119.53 17.76 119.241 18.0773 119.017 18.46C118.802 18.8333 118.695 19.2767 118.695 19.79C118.695 20.2473 118.779 20.6393 118.947 20.966C119.124 21.2833 119.353 21.5493 119.633 21.764C119.913 21.9787 120.23 22.156 120.585 22.296C120.939 22.4267 121.303 22.5387 121.677 22.632C122.041 22.7347 122.4 22.828 122.755 22.912C123.109 22.996 123.427 23.094 123.707 23.206C123.987 23.318 124.211 23.458 124.379 23.626C124.556 23.794 124.645 24.0133 124.645 24.284C124.645 24.536 124.579 24.746 124.449 24.914C124.318 25.0727 124.155 25.1987 123.959 25.292C123.763 25.3853 123.553 25.4507 123.329 25.488C123.105 25.516 122.895 25.53 122.699 25.53C122.409 25.53 122.129 25.4973 121.859 25.432C121.588 25.3573 121.35 25.25 121.145 25.11C120.949 24.9607 120.79 24.7693 120.669 24.536C120.547 24.3027 120.487 24.018 120.487 23.682Z" fill="#34C759"/>
<path d="M139.7 27L142.388 17.004H140.232L138.594 23.892H138.566L136.858 17.004H134.8L133.064 23.808H133.036L131.454 17.004H129.256L131.902 27H134.128L135.794 20.196H135.822L137.516 27H139.7Z" fill="#34C759"/>
<path d="M145.501 17.004V27H147.699V17.004H145.501Z" fill="#34C759"/>
<path d="M153.942 18.852V27H156.14V18.852H159.136V17.004H150.946V18.852H153.942Z" fill="#34C759"/>
<path d="M169.053 20.364H171.181C171.115 19.7853 170.957 19.272 170.705 18.824C170.453 18.376 170.131 18.0027 169.739 17.704C169.356 17.396 168.917 17.1627 168.423 17.004C167.937 16.8453 167.419 16.766 166.869 16.766C166.103 16.766 165.413 16.9013 164.797 17.172C164.19 17.4427 163.677 17.816 163.257 18.292C162.837 18.768 162.515 19.328 162.291 19.972C162.067 20.6067 161.955 21.2973 161.955 22.044C161.955 22.772 162.067 23.4533 162.291 24.088C162.515 24.7133 162.837 25.2593 163.257 25.726C163.677 26.1927 164.19 26.5613 164.797 26.832C165.413 27.0933 166.103 27.224 166.869 27.224C167.485 27.224 168.049 27.1307 168.563 26.944C169.076 26.7573 169.524 26.4867 169.907 26.132C170.289 25.7773 170.597 25.348 170.831 24.844C171.064 24.34 171.209 23.7753 171.265 23.15H169.137C169.053 23.822 168.819 24.3633 168.437 24.774C168.063 25.1847 167.541 25.39 166.869 25.39C166.374 25.39 165.954 25.2967 165.609 25.11C165.263 24.914 164.983 24.6573 164.769 24.34C164.554 24.0227 164.395 23.668 164.293 23.276C164.199 22.8747 164.153 22.464 164.153 22.044C164.153 21.6053 164.199 21.1807 164.293 20.77C164.395 20.3593 164.554 19.9953 164.769 19.678C164.983 19.3513 165.263 19.0947 165.609 18.908C165.954 18.712 166.374 18.614 166.869 18.614C167.139 18.614 167.396 18.6607 167.639 18.754C167.891 18.838 168.115 18.9593 168.311 19.118C168.507 19.2767 168.67 19.4633 168.801 19.678C168.931 19.8833 169.015 20.112 169.053 20.364Z" fill="#34C759"/>
<path d="M174.866 17.004V27H177.064V22.688H181.11V27H183.308V17.004H181.11V20.84H177.064V17.004H174.866Z" fill="#34C759"/>
<path d="M187.343 17.004V27H194.931V25.152H189.541V22.702H194.385V20.994H189.541V18.852H194.819V17.004H187.343Z" fill="#34C759"/>
<path d="M200.719 21.526V18.712H203.127C203.631 18.712 204.009 18.824 204.261 19.048C204.513 19.2627 204.639 19.6127 204.639 20.098C204.639 20.602 204.513 20.966 204.261 21.19C204.009 21.414 203.631 21.526 203.127 21.526H200.719ZM198.521 17.004V27H200.719V23.094H202.917C203.467 23.094 203.864 23.2153 204.107 23.458C204.349 23.7007 204.508 24.0833 204.583 24.606C204.639 25.0073 204.681 25.4273 204.709 25.866C204.737 26.3047 204.811 26.6827 204.933 27H207.131C207.028 26.86 206.949 26.692 206.893 26.496C206.846 26.2907 206.809 26.076 206.781 25.852C206.762 25.628 206.748 25.4087 206.739 25.194C206.729 24.9793 206.72 24.7927 206.711 24.634C206.692 24.382 206.655 24.13 206.599 23.878C206.552 23.626 206.473 23.3973 206.361 23.192C206.249 22.9773 206.104 22.7953 205.927 22.646C205.749 22.4873 205.525 22.3707 205.255 22.296V22.268C205.815 22.044 206.216 21.7173 206.459 21.288C206.711 20.8587 206.837 20.35 206.837 19.762C206.837 19.3793 206.767 19.0247 206.627 18.698C206.496 18.362 206.3 18.068 206.039 17.816C205.787 17.564 205.479 17.368 205.115 17.228C204.76 17.0787 204.359 17.004 203.911 17.004H198.521Z" fill="#34C759"/>
<g clip-path="url(#clip1_111_7)">
<path d="M17.0984 14.1649H7.90162C3.53781 14.1649 0 17.7087 0 22.0817C0 26.4547 3.53781 30 7.90162 30H17.0984C21.4622 30 25 26.4547 25 22.0817C25 17.7087 21.4622 14.1649 17.0984 14.1649ZM16.9261 29.0921C13.0637 29.0921 9.93201 25.9537 9.93201 22.0832C9.93201 18.2127 13.0637 15.0744 16.9261 15.0744C20.7885 15.0744 23.9202 18.2127 23.9202 22.0832C23.9202 25.9537 20.7885 29.0921 16.9261 29.0921Z" fill="#34C759"/>
<path d="M16.0047 10.6844C16.0047 11.6817 16.2632 12.6173 16.7169 13.4281C14.5112 13.0474 12.833 11.1206 12.833 8.80075C12.833 8.50942 12.8592 8.22426 12.9115 7.9468C13.3422 7.81578 13.8005 7.74487 14.2743 7.74487C15.0895 7.74487 15.8571 7.95451 16.5246 8.32137C16.1909 9.03967 16.0047 9.83967 16.0047 10.6844Z" fill="#34C759"/>
<path d="M22.2067 8.80077C22.2067 10.9202 20.8069 12.7114 18.8827 13.2956C18.552 13.3958 18.2074 13.462 17.849 13.4852H17.8475C17.2676 12.7037 16.9246 11.7341 16.9246 10.6844C16.9246 10.0339 17.0568 9.41426 17.2953 8.8501C17.9674 7.26243 19.4856 6.12331 21.2838 6C21.8636 6.7815 22.2067 7.75106 22.2067 8.80077Z" fill="#34C759"/>
</g>
</g>
<defs>
<clipPath id="clip0_111_7">
<rect width="207" height="44" fill="white"/>
</clipPath>
<clipPath id="clip1_111_7">
<rect width="25" height="24" fill="white" transform="translate(0 6)"/>
</clipPath>
</defs>
</svg>
